<svg width="48" height="48" xmlns="http://www.w3.org/2000/svg">

 <g>
  <title>Layer 1</title>
  <path id="svg_1" d="m24,27.82988l-19.14943,19.14943q-0.82069,0.82069 -1.91494,0.82069q-1.09425,0 -1.91494,-0.82069q-0.82069,-0.82069 -0.82069,-1.91494q0,-1.09425 0.82069,-1.91494l19.14943,-19.14943l-19.14943,-19.14943q-0.82069,-0.82069 -0.82069,-1.91494q0,-1.09425 0.82069,-1.91494q0.82069,-0.82069 1.91494,-0.82069q1.09425,0 1.91494,0.82069l19.14943,19.14943l19.14943,-19.14943q0.82069,-0.82069 1.91494,-0.82069q1.09425,0 1.91494,0.82069q0.82069,0.82069 0.82069,1.91494q0,1.09425 -0.82069,1.91494l-19.14943,19.14943l19.14943,19.14943q0.82069,0.82069 0.82069,1.91494q0,1.09425 -0.82069,1.91494q-0.82069,0.82069 -1.91494,0.82069q-1.09425,0 -1.91494,-0.82069l-19.14943,-19.14943z" fill="#FFFFFF"/>
 </g>
</svg>
